# xmcd
#
# Track frame offsets:
#	150
#	13038
#	28887
#	43712
#	59878
#	77974
#	86721
#	98752
#	112929
#	128085
#	141490
#	153713
#	165819
#	181348
#	199385
#	217209
#	230065
#	246922
#	258979
#	276076
#	292119
#
# Disc length: 4084 seconds
#
# Revision: 0
# Processed by: cddbd v1.5.2PL0 Copyright (c) Steve Scherf et al.
# Submitted via: audiograbber 1.83.01
#
DISCID=440ff215
DTITLE=Dr Feelgood - Gettin' Their Kicks At The BBC (With Wilko Johnson 1973-75
DTITLE=) (Disc2)
DYEAR=1900
DGENRE=
TTITLE0=Boom Boom
TTITLE1=All Through The City
TTITLE2=Roxette
TTITLE3=Talk To Me Baby
TTITLE4=(Get Your Kicks On) Route 66
TTITLE5=I Don't Mind
TTITLE6=I'm A Hog For You Baby
TTITLE7=Keep It Out Of Sight
TTITLE8=(Get You Kicks On) Route 66
TTITLE9=She Does It Right
TTITLE10=Roxette
TTITLE11=Keep It Out Of Sight
TTITLE12=I Can Tell
TTITLE13=Going Back Home
TTITLE14=Don't You Just Know It
TTITLE15=Roxette
TTITLE16=Another Man
TTITLE17=I Don't Mind
TTITLE18=Riot In Cell Block #9
TTITLE19=Rollin' And Tumblin'
TTITLE20=You Shouldn't Call The Doctor (If You Can't Afford The Bills)
EXTD=
EXTT0=
EXTT1=
EXTT2=
EXTT3=
EXTT4=
EXTT5=
EXTT6=
EXTT7=
EXTT8=
EXTT9=
EXTT10=
EXTT11=
EXTT12=
EXTT13=
EXTT14=
EXTT15=
EXTT16=
EXTT17=
EXTT18=
EXTT19=
EXTT20=
PLAYORDER=
